<?xml version="1.0" encoding="UTF-8"?><svg id="Ebene_1" xmlns="http://www.w3.org/2000/svg" viewBox="0 0 235.85 77.76"><defs><style>.cls-1{fill:#4b4b4b;}.cls-2{fill:#e65023;}</style></defs><g><path class="cls-2" d="M235.85,20.25v18.42h-6.61V22.66c0-.4,.2-4.41-4.21-4.41-4.01,0-4.21,4.41-4.21,4.41v16.02h-6.81V1.03h6.81V14.45c2-1.6,4-3,7.41-2.8,0,0,7.61,.4,7.61,8.61h0Z"/><path class="cls-2" d="M210.42,32.07c-4.8,0-4.8-3.4-4.8-3.4v-9.61h4.8v-7.01h-4.8V5.44l-7.21,.2V28.67c0,7.21,3.61,10.01,12.02,10.01v-6.61Z"/><path class="cls-2" d="M180.2,38.68h-7.21V21.66c.2-6.21,3.8-8.81,6.81-9.81,3.61-1.2,9.01-1,12.21,2.4,2,2,3.01,4.61,3.21,7.41v17.02h-7.21V21.66c-.4-2.4-1.4-3.41-3.6-3.41s-3.8,.8-4.21,3.41v17.02Z"/><path class="cls-2" d="M142.04,26.66c3.8,3.2,1.6,12.01-3.6,12.01h-13.42v-6.81h8.41c1.6,0,2.2-1.6,1-2.8l-7.01-5.61c-3-2.4-2.4-5.81-2.4-5.81,.4-3.21,2-5.61,6.01-5.61h11.21v6.21l-6.81-.2c-1.4,.2-1.6,1.6-.8,2.4l7.41,6.21Z"/><path class="cls-2" d="M122.1,23.06c-.4-4.21-3.2-8.21-6.81-10.21-4.81-2.4-11.21-1.4-15.22,2-4.01,3-5.21,9.21-3.8,14.42,.8,3.8,3.8,7.01,7.41,8.81,4.61,1.8,10.21,1.2,13.82-2.2,3.4-3.2,5.41-7.61,4.61-12.82h0Zm-9.01,7.21c-1.6,1.6-3.4,2-5.61,1.4-2-.4-3.6-1.8-4.41-4.21-.6-2.2-.4-5.01,1-6.41,1.4-1.6,3-2.4,4.61-2.4,2.2,0,3.6,.4,4.81,1.8,2.6,2.6,2.4,7.21-.4,9.81h0Z"/><path class="cls-2" d="M94.35,19.25c-2,.2-4.21,0-5.61,1.6-1.8,1.4-2,3.4-2.2,5.81l.2,12.01h-7.21V12.04h6.81l-.2,4c1.6-2.4,4-4.41,8.21-4.41v7.61Z"/><path class="cls-2" d="M75.13,12.04v6.81c-3.8,0-8.21-.6-9.81,2.8-1,1.8-1.2,4-.4,6.61,1.8,4,5.61,3.4,10.01,3.6v6.81h-7.41c-4.61,0-9.21-5.01-10.21-10.01-1-5.61-.4-10.41,5.01-14.62,0,0,3.6-2,6.81-2h6.01Z"/><polygon class="cls-2" points="46.66 38.68 46.66 12.04 53.87 12.04 53.87 23.66 53.87 38.68 46.66 38.68 46.66 38.68"/><path class="cls-2" d="M11.41,11.44l-3.2,27.23s.2,0,0,0H0l1.2-9.81L4.41,4.23c.6-2,1.4-3.2,3-3.6C9.81-.17,13.02,.03,14.82,1.43c2.2,1.6,3.2,7.81,3.2,7.81l3,12.01s.4,.4,.6,0l1-3.8,3.2-13.02c.6-2.4,2.4-3.8,4.41-4.21,1.8-.4,4.2-.4,5.81,1,1.2,1,2.2,2.4,2.6,5.41l3,21.63,1,7.81,.4,2.6h-8.61l-3.2-27.23-6.61,24.63c-.6,1.8-1.6,2.6-3.4,2.6-2.2,0-2.6-1-3.2-2L11.41,11.44Z"/><path class="cls-2" d="M50.26,8.64c2.2,0,4.01-1.8,4.01-4.01S52.46,.43,50.26,.43c-2.4,0-4.2,2-4.2,4.21s1.8,4.01,4.2,4.01h0Z"/><path class="cls-2" d="M148.05,32.87c.6,2,4.01,5.41,6.81,5.81v8.01h7.41v-8.01h0c3.41-1.2,7.21-4,7.21-10.01l.2-8.81v-7.81h-7.01V28.67c-.6,4-4,3.6-4,3.6-2.4-.2-4-1-4.2-3.6V12.04h-7.01V28.67s0,3,.6,4.21h0Z"/></g><g><path class="cls-1" d="M14.99,54.8l-.06-.15h-4.65L.64,77.39H4.9l2.88-6.99h9.49l2.96,6.99h4.38l-9.62-22.59Zm-2.49,3.34c.35,1.1,.73,2.23,1.25,3.46l2.57,6.05h-7.59l2.56-6.09c.41-1.02,.79-2.11,1.21-3.42Z"/><path class="cls-1" d="M48.5,54.65v13.22c0,2.19-.45,4.04-1.32,5.53-1.67,2.84-4.87,4.36-9.42,4.36-6.58,0-10.2-3.47-10.2-9.76v-13.35h4.12v13.42c0,4.41,2.2,6.84,6.21,6.84,4.25,0,6.49-2.37,6.49-6.84v-13.42h4.12Z"/><path class="cls-1" d="M70.48,71.07c0,3.07-2.61,6.65-9.96,6.65-2.6,0-5.63-.61-7.2-1.45l-.19-.1,.18-.47,.9-2.4,.25,.12c1.81,.89,4.16,1.43,6.3,1.43,3.43,0,5.55-1.36,5.55-3.55,0-1.91-1.36-3.05-5.04-4.18-5.12-1.46-7.5-3.54-7.5-6.55,0-3.7,3.79-6.29,9.22-6.29,3.29,0,5.31,.7,6.23,1.12l.22,.1-1.18,2.8-.23-.1c-1.08-.48-2.85-1.04-5.17-1.04-3.43,0-4.97,1.55-4.97,3.08,0,1.82,1.29,2.8,5.33,4.06,5.15,1.59,7.26,3.55,7.26,6.77Z"/><polygon class="cls-1" points="95.57 54.65 95.57 57.59 87.1 57.59 87.1 77.39 82.98 77.39 82.98 57.59 74.54 57.59 74.54 54.65 95.57 54.65"/><path class="cls-1" d="M119.52,77c-.57-.84-1.26-3.13-2.11-6.03-.64-2.26-1.87-3.76-3.64-4.46,3.02-1.01,4.8-3.12,4.8-5.74,0-1.78-.83-3.4-2.28-4.42-1.78-1.29-4.3-1.87-8.17-1.87-2.55,0-5.13,.18-6.91,.47l-.21,.03v22.41h4.08v-9.63h3.11c3.14,.09,4.53,1.17,5.32,4.14,.92,3.23,1.46,4.79,1.89,5.39l.08,.1h4.3l-.26-.39Zm-5.03-15.9c0,2.42-2.35,3.98-6,3.98h-3.41v-7.67c.61-.11,1.73-.22,3.28-.22,2.8,.03,6.13,.73,6.13,3.91Z"/><rect class="cls-1" x="125.97" y="54.65" width="4.08" height="22.74"/><path class="cls-1" d="M149.94,54.8l-.06-.15h-4.65l-9.63,22.74h4.24l2.88-6.99h9.5l2.96,6.99h4.37l-9.61-22.59Zm-2.49,3.34c.35,1.09,.73,2.23,1.25,3.46l2.57,6.05h-7.6l2.57-6.09c.41-1.03,.8-2.13,1.21-3.42Z"/></g></svg>