<?xml version="1.0" encoding="UTF-8"?><svg id="Ebene_1" xmlns="http://www.w3.org/2000/svg" viewBox="0 0 235.85 80.7"><defs><style>.cls-1{fill:#4b4b4b;}.cls-2{fill:#e65023;}</style></defs><g><path class="cls-2" d="M235.85,20.25v18.42h-6.61V22.66c0-.4,.2-4.41-4.21-4.41-4.01,0-4.21,4.41-4.21,4.41v16.02h-6.81V1.03h6.81V14.45c2-1.6,4-3,7.41-2.8,0,0,7.61,.4,7.61,8.61h0Z"/><path class="cls-2" d="M210.42,32.07c-4.8,0-4.8-3.4-4.8-3.4v-9.61h4.8v-7.01h-4.8V5.44l-7.21,.2V28.67c0,7.21,3.61,10.01,12.02,10.01v-6.61Z"/><path class="cls-2" d="M180.2,38.68h-7.21V21.66c.2-6.21,3.8-8.81,6.81-9.81,3.61-1.2,9.01-1,12.21,2.4,2,2,3.01,4.61,3.21,7.41v17.02h-7.21V21.66c-.4-2.4-1.4-3.41-3.6-3.41s-3.8,.8-4.21,3.41v17.02Z"/><path class="cls-2" d="M142.04,26.66c3.8,3.2,1.6,12.01-3.6,12.01h-13.42v-6.81h8.41c1.6,0,2.2-1.6,1-2.8l-7.01-5.61c-3-2.4-2.4-5.81-2.4-5.81,.4-3.21,2-5.61,6.01-5.61h11.21v6.21l-6.81-.2c-1.4,.2-1.6,1.6-.8,2.4l7.41,6.21Z"/><path class="cls-2" d="M122.1,23.06c-.4-4.21-3.2-8.21-6.81-10.21-4.81-2.4-11.21-1.4-15.22,2-4.01,3-5.21,9.21-3.8,14.42,.8,3.8,3.8,7.01,7.41,8.81,4.61,1.8,10.21,1.2,13.82-2.2,3.4-3.2,5.41-7.61,4.61-12.82h0Zm-9.01,7.21c-1.6,1.6-3.4,2-5.61,1.4-2-.4-3.6-1.8-4.41-4.21-.6-2.2-.4-5.01,1-6.41,1.4-1.6,3-2.4,4.61-2.4,2.2,0,3.6,.4,4.81,1.8,2.6,2.6,2.4,7.21-.4,9.81h0Z"/><path class="cls-2" d="M94.35,19.25c-2,.2-4.21,0-5.61,1.6-1.8,1.4-2,3.4-2.2,5.81l.2,12.01h-7.21V12.04h6.81l-.2,4c1.6-2.4,4-4.41,8.21-4.41v7.61Z"/><path class="cls-2" d="M75.13,12.04v6.81c-3.8,0-8.21-.6-9.81,2.8-1,1.8-1.2,4-.4,6.61,1.8,4,5.61,3.4,10.01,3.6v6.81h-7.41c-4.61,0-9.21-5.01-10.21-10.01-1-5.61-.4-10.41,5.01-14.62,0,0,3.6-2,6.81-2h6.01Z"/><polygon class="cls-2" points="46.66 38.68 46.66 12.04 53.87 12.04 53.87 23.66 53.87 38.68 46.66 38.68 46.66 38.68"/><path class="cls-2" d="M11.41,11.44l-3.2,27.23s.2,0,0,0H0l1.2-9.81L4.41,4.23c.6-2,1.4-3.2,3-3.6C9.81-.17,13.02,.03,14.82,1.43c2.2,1.6,3.2,7.81,3.2,7.81l3,12.01s.4,.4,.6,0l1-3.8,3.2-13.02c.6-2.4,2.4-3.8,4.41-4.21,1.8-.4,4.2-.4,5.81,1,1.2,1,2.2,2.4,2.6,5.41l3,21.63,1,7.81,.4,2.6h-8.61l-3.2-27.23-6.61,24.63c-.6,1.8-1.6,2.6-3.4,2.6-2.2,0-2.6-1-3.2-2L11.41,11.44Z"/><path class="cls-2" d="M50.26,8.64c2.2,0,4.01-1.8,4.01-4.01S52.46,.43,50.26,.43c-2.4,0-4.2,2-4.2,4.21s1.8,4.01,4.2,4.01h0Z"/><path class="cls-2" d="M148.05,32.87c.6,2,4.01,5.41,6.81,5.81v8.01h7.41v-8.01h0c3.41-1.2,7.21-4,7.21-10.01l.2-8.81v-7.81h-7.01V28.67c-.6,4-4,3.6-4,3.6-2.4-.2-4-1-4.2-3.6V12.04h-7.01V28.67s0,3,.6,4.21h0Z"/></g><g><path class="cls-1" d="M17.49,71.07c0,3.07-2.61,6.66-9.96,6.66-2.6,0-5.63-.61-7.19-1.45l-.2-.11,1.08-2.87,.25,.12c1.81,.9,4.17,1.43,6.31,1.43,3.42,0,5.55-1.36,5.55-3.55,0-1.91-1.37-3.04-5.05-4.18-5.12-1.45-7.5-3.53-7.5-6.54,0-3.71,3.79-6.29,9.22-6.29,3.29,0,5.32,.69,6.23,1.11l.22,.1-1.18,2.8-.23-.1c-1.08-.47-2.85-1.04-5.17-1.04-3.43,0-4.97,1.55-4.97,3.09,0,1.81,1.3,2.8,5.34,4.05,5.15,1.59,7.25,3.56,7.25,6.77Z"/><polygon class="cls-1" points="39.17 74.49 39.17 77.4 23.08 77.4 23.08 54.65 38.55 54.65 38.55 57.56 27.16 57.56 27.16 64.09 37.94 64.09 37.94 66.97 27.16 66.97 27.16 74.49 39.17 74.49"/><path class="cls-1" d="M68.7,77.76c-2.1-.3-4.81-.77-7.38-1.28,4.64-1.58,7.39-5.52,7.39-10.69,0-6.88-5.09-11.5-12.67-11.5s-13.17,4.92-13.17,11.96c0,7.69,6.26,11.32,12.47,11.51,.49,0,1.06,.16,1.62,.32,3.26,.9,6.93,1.8,10.63,2.58l.2,.04,1.23-2.9-.32-.04Zm-4.27-11.84c0,4.48-2.69,9-8.68,9-2.44,0-4.55-.83-6.1-2.4-1.58-1.59-2.48-3.9-2.46-6.33-.02-2.67,.87-5.04,2.5-6.69,1.54-1.55,3.69-2.37,6.22-2.37,5.85,0,8.52,4.56,8.52,8.79Z"/><polygon class="cls-1" points="91.63 74.49 91.63 77.4 75.7 77.4 75.7 54.65 79.78 54.65 79.78 74.49 91.63 74.49"/><path class="cls-1" d="M110.9,54.8l-.06-.15h-4.65l-9.63,22.75h4.24l2.88-7h9.5l2.96,7h4.37l-9.61-22.6Zm-2.49,3.34c.35,1.09,.73,2.23,1.25,3.46l2.57,6.05h-7.6l2.57-6.09c.41-1.02,.8-2.12,1.21-3.42Z"/><path class="cls-1" d="M138.78,65.16c2.58-.96,4.15-2.79,4.15-4.88,0-1.76-.84-3.2-2.41-4.14-1.79-1.16-4.11-1.65-7.75-1.65-2.37,0-4.89,.17-6.58,.46l-.21,.04v22.31l.22,.03c.9,.1,2.82,.26,5.58,.26,4.6,0,7.79-.69,9.74-2.13,1.62-1.26,2.44-2.82,2.44-4.65,0-3.12-2.64-4.93-5.18-5.65Zm-5.97,9.69c-1.25,0-2.14-.03-2.75-.1v-8.02h2.71c1.62,0,6.91,.3,6.91,4.05,0,3.54-4.31,4.07-6.87,4.07Zm-2.75-17.49c.73-.11,1.71-.16,2.91-.16,3.88,0,5.84,1.13,5.84,3.38,0,2.11-2.26,3.48-5.75,3.48h-3v-6.7Z"/></g></svg>