<?xml version="1.0" encoding="UTF-8"?><svg id="Ebene_1" xmlns="http://www.w3.org/2000/svg" viewBox="0 0 111.97 36.99"><defs><style>.cls-1{fill:#4b4b4b;}.cls-2{fill:#e65023;}</style></defs><g><path class="cls-2" d="M111.97,9.62v8.75h-3.14v-7.61c0-.19,.09-2.09-2-2.09-1.9,0-2,2.09-2,2.09v7.61h-3.23V.49h3.23V6.86c.95-.76,1.9-1.43,3.52-1.33,0,0,3.61,.19,3.61,4.09h0Z"/><path class="cls-2" d="M99.9,15.22c-2.28,0-2.28-1.62-2.28-1.62v-4.56h2.28v-3.33h-2.28V2.58l-3.42,.09V13.61c0,3.42,1.71,4.75,5.71,4.75v-3.14Z"/><path class="cls-2" d="M85.55,18.36h-3.42V10.28c.09-2.95,1.81-4.18,3.23-4.66,1.71-.57,4.28-.48,5.8,1.14,.95,.95,1.43,2.19,1.52,3.52v8.08h-3.42V10.28c-.19-1.14-.67-1.62-1.71-1.62s-1.81,.38-2,1.62v8.08Z"/><path class="cls-2" d="M67.43,12.66c1.81,1.52,.76,5.7-1.71,5.7h-6.37v-3.23h3.99c.76,0,1.05-.76,.47-1.33l-3.33-2.66c-1.43-1.14-1.14-2.76-1.14-2.76,.19-1.52,.95-2.66,2.85-2.66h5.32v2.95l-3.23-.1c-.67,.1-.76,.76-.38,1.14l3.52,2.95Z"/><path class="cls-2" d="M57.97,10.95c-.19-2-1.52-3.9-3.23-4.85-2.28-1.14-5.32-.67-7.22,.95-1.9,1.43-2.47,4.37-1.81,6.84,.38,1.81,1.81,3.33,3.52,4.18,2.19,.86,4.85,.57,6.56-1.05,1.62-1.52,2.57-3.61,2.19-6.08h0Zm-4.28,3.42c-.76,.76-1.62,.95-2.66,.67-.95-.19-1.71-.86-2.09-2-.29-1.05-.19-2.38,.48-3.04,.67-.76,1.43-1.14,2.19-1.14,1.05,0,1.71,.19,2.28,.86,1.24,1.24,1.14,3.42-.19,4.66h0Z"/><path class="cls-2" d="M44.79,9.14c-.95,.1-2,0-2.66,.76-.86,.67-.95,1.62-1.05,2.76l.1,5.7h-3.42V5.72h3.23l-.1,1.9c.76-1.14,1.9-2.09,3.9-2.09v3.61Z"/><path class="cls-2" d="M35.67,5.72v3.23c-1.81,0-3.9-.29-4.66,1.33-.48,.86-.57,1.9-.19,3.14,.86,1.9,2.66,1.62,4.75,1.71v3.23h-3.52c-2.19,0-4.37-2.38-4.85-4.75-.48-2.66-.19-4.94,2.38-6.94,0,0,1.71-.95,3.23-.95h2.85Z"/><polygon class="cls-2" points="22.15 18.36 22.15 5.72 25.57 5.72 25.57 11.23 25.57 18.36 22.15 18.36 22.15 18.36"/><path class="cls-2" d="M5.42,5.43l-1.52,12.93s.1,0,0,0H0l.57-4.66L2.09,2.01c.29-.95,.67-1.52,1.43-1.71C4.66-.08,6.18,.01,7.03,.68c1.05,.76,1.52,3.71,1.52,3.71l1.43,5.7s.19,.19,.28,0l.48-1.81,1.52-6.18c.29-1.14,1.14-1.81,2.09-2,.86-.19,2-.19,2.76,.48,.57,.48,1.05,1.14,1.24,2.57l1.43,10.27,.48,3.71,.19,1.24h-4.09l-1.52-12.93-3.14,11.69c-.29,.86-.76,1.24-1.62,1.24-1.05,0-1.24-.48-1.52-.95L5.42,5.43Z"/><path class="cls-2" d="M23.86,4.1c1.05,0,1.9-.86,1.9-1.9s-.86-2-1.9-2c-1.14,0-2,.95-2,2s.86,1.9,2,1.9h0Z"/><path class="cls-2" d="M70.29,15.61c.29,.95,1.9,2.57,3.23,2.76v3.8h3.52v-3.8h0c1.62-.57,3.42-1.9,3.42-4.75l.1-4.18v-3.71h-3.33v7.89c-.29,1.9-1.9,1.71-1.9,1.71-1.14-.1-1.9-.48-2-1.71V5.72h-3.33v7.89s0,1.43,.29,2h0Z"/></g><g><path class="cls-1" d="M1.58,26.01h6.95v1.19H3.16v3.53h4.94v1.19H3.16v4.88H1.58v-10.79Z"/><path class="cls-1" d="M11.46,26.15c.84-.14,2.08-.24,3.25-.24,1.76,0,2.89,.3,3.66,.93,.58,.45,.95,1.19,.95,2.03,0,1.43-1.08,2.39-2.32,2.74v.04c.91,.3,1.48,1.09,1.77,2.11,.43,1.52,.72,2.59,.98,3.04h-1.64c-.19-.31-.47-1.2-.82-2.55-.38-1.48-1.06-2.06-2.51-2.11h-1.74v4.67h-1.58v-10.64Zm1.58,4.89h1.88c1.74,0,2.83-.79,2.83-2.01,0-1.45-1.28-2-2.94-2-.89,0-1.48,.08-1.77,.14v3.88Z"/><path class="cls-1" d="M24.32,33.36l-1.36,3.44h-1.67l4.43-10.79h1.94l4.48,10.79h-1.72l-1.42-3.44h-4.69Zm4.34-1.12l-1.35-3.23c-.28-.69-.47-1.25-.65-1.8h-.03c-.18,.57-.37,1.14-.62,1.78l-1.34,3.25h3.99Z"/><path class="cls-1" d="M34.52,36.8v-10.79h1.8l4.3,5.58c.98,1.3,1.69,2.34,2.3,3.43l.04-.02c-.15-1.35-.17-2.64-.17-4.25v-4.74h1.5v10.79h-1.63l-4.24-5.56c-.92-1.25-1.81-2.48-2.45-3.6l-.06,.02c.09,1.34,.1,2.62,.1,4.23v4.91h-1.5Z"/><path class="cls-1" d="M56.93,36.4c-.61,.28-1.92,.59-3.58,.59-3.65,0-6.41-2-6.41-5.5,0-3.1,2.55-5.67,6.8-5.67,1.7,0,2.78,.33,3.23,.54l-.4,1.16c-.67-.29-1.66-.52-2.76-.52-3.26,0-5.2,1.78-5.2,4.46,0,2.42,1.77,4.31,5.08,4.31,1.08,0,2.18-.19,2.91-.51l.33,1.13Z"/><path class="cls-1" d="M66.25,31.76h-5.1v3.84h5.68v1.19h-7.27v-10.79h6.98v1.19h-5.39v3.37h5.1v1.19Z"/></g></svg>